<svg width="160" height="160" viewBox="0 0 160 160" fill="none" xmlns="http://www.w3.org/2000/svg">
<circle cx="130.315" cy="80" r="20.6853" fill="#5046E5"/>
<circle cx="130.315" cy="130.315" r="20.6853" fill="#5046E5"/>
<path fill-rule="evenodd" clip-rule="evenodd" d="M130.315 50.3706C141.739 50.3706 151 41.1095 151 29.6853C151 18.2611 141.739 9 130.315 9C118.891 9 109.629 18.2611 109.629 29.6853C109.629 41.1095 118.891 50.3706 130.315 50.3706ZM130.315 43.26C137.812 43.26 143.889 37.1824 143.889 29.6853C143.889 22.1882 137.812 16.1106 130.315 16.1106C122.818 16.1106 116.74 22.1882 116.74 29.6853C116.74 37.1824 122.818 43.26 130.315 43.26Z" fill="#5046E5"/>
<circle cx="29.6853" cy="29.6853" r="20.6853" fill="#5046E5"/>
<circle cx="29.6853" cy="80" r="20.6853" fill="#5046E5"/>
<path fill-rule="evenodd" clip-rule="evenodd" d="M29.6853 151C41.1095 151 50.3706 141.739 50.3706 130.315C50.3706 118.891 41.1095 109.629 29.6853 109.629C18.2611 109.629 9 118.891 9 130.315C9 141.739 18.2611 151 29.6853 151ZM29.6853 143.889C37.1824 143.889 43.26 137.812 43.26 130.315C43.26 122.818 37.1824 116.74 29.6853 116.74C22.1882 116.74 16.1106 122.818 16.1106 130.315C16.1106 137.812 22.1882 143.889 29.6853 143.889Z" fill="#5046E5"/>
<circle cx="80" cy="29.6853" r="20.6853" fill="#5046E5"/>
<path fill-rule="evenodd" clip-rule="evenodd" d="M80 100.685C91.4242 100.685 100.685 91.4242 100.685 80C100.685 68.5758 91.4242 59.3147 80 59.3147C68.5759 59.3147 59.3147 68.5758 59.3147 80C59.3147 91.4242 68.5759 100.685 80 100.685ZM80 93.5747C87.4971 93.5747 93.5747 87.4971 93.5747 80C93.5747 72.5029 87.4971 66.4253 80 66.4253C72.5029 66.4253 66.4253 72.5029 66.4253 80C66.4253 87.4971 72.5029 93.5747 80 93.5747Z" fill="#5046E5"/>
<circle cx="80" cy="130.315" r="20.6853" fill="#5046E5"/>
</svg>
